<?xml version="1.0" standalone="no"?>
<!DOCTYPE svg PUBLIC "-//W3C//DTD SVG 20010904//EN"
 "http://www.w3.org/TR/2001/REC-SVG-20010904/DTD/svg10.dtd">
<svg version="1.0" xmlns="http://www.w3.org/2000/svg"
 width="1280.000000pt" height="660.000000pt" viewBox="0 0 1280.000000 660.000000"
 preserveAspectRatio="xMidYMid meet">
<g transform="translate(0.000000,660.000000) scale(0.100000,-0.100000)"
fill="rgb(255, 255, 255)" fill-opacity=".02" stroke="rgba(255, 255, 255, 0.25)">
<path stroke-width="20" stroke-linecap="round" d="M31 6563 c-17 -21 -31 -43 -31 -49 0 -16 77 -83 145 -129 50 -32 59
-35 131 -35 71 0 81 -3 130 -36 30 -19 54 -39 54 -44 0 -16 53 -72 92 -96 25
-16 38 -32 38 -46 0 -47 41 -108 100 -148 32 -22 62 -50 65 -62 4 -13 43 -57
87 -99 l81 -77 7 -82 c7 -79 9 -85 46 -121 22 -21 49 -51 62 -68 12 -16 36
-32 52 -36 34 -7 58 -37 93 -115 16 -37 45 -74 88 -115 53 -49 78 -64 139 -84
86 -28 103 -41 139 -107 14 -27 45 -62 68 -79 24 -16 62 -44 85 -60 33 -24 45
-40 51 -70 14 -67 47 -124 86 -147 20 -12 51 -34 69 -50 28 -24 41 -28 96 -28
51 0 78 -7 137 -34 79 -36 106 -60 134 -116 23 -46 45 -70 64 -70 9 0 40 -10
69 -22 53 -22 53 -22 123 -4 80 20 105 17 163 -24 36 -25 52 -29 134 -33 77
-4 99 -1 129 14 45 23 53 23 89 4 35 -18 61 -19 120 -4 37 10 56 9 102 -4 137
-39 155 -40 234 -18 41 12 84 21 96 21 29 0 62 -34 62 -65 0 -31 26 -45 96
-52 42 -5 57 -11 66 -27 6 -12 21 -32 34 -46 13 -14 35 -38 50 -54 23 -26 29
-28 67 -20 23 4 62 8 87 9 25 0 62 4 82 9 30 7 44 4 74 -15 35 -21 40 -22 110
-10 53 9 79 9 94 1 25 -13 25 -14 -1 -49 -17 -24 -18 -31 -8 -54 7 -15 20 -29
31 -32 10 -4 32 -18 50 -33 44 -37 171 -48 311 -25 l99 15 35 -33 c19 -19 53
-62 75 -96 43 -68 80 -91 178 -113 76 -17 159 -61 198 -104 31 -34 47 -42 102
-48 19 -2 32 -17 57 -63 46 -87 54 -91 183 -99 96 -6 115 -5 137 10 21 13 40
15 90 11 36 -4 73 -2 86 4 19 8 38 4 102 -26 44 -20 96 -51 115 -69 19 -18 49
-41 66 -51 16 -9 42 -36 56 -59 46 -72 83 -100 133 -102 64 -2 138 -69 185
-167 34 -70 37 -73 109 -109 92 -46 126 -78 140 -132 14 -57 42 -69 132 -60
l68 7 34 -74 c21 -44 51 -90 76 -113 25 -25 47 -58 57 -89 12 -35 27 -56 57
-78 22 -16 48 -29 57 -29 10 0 34 -14 55 -30 21 -17 50 -30 64 -30 32 0 91
-35 91 -54 0 -7 15 -36 33 -62 18 -27 38 -61 45 -76 8 -19 19 -28 34 -28 13
-1 34 -7 48 -15 14 -8 34 -14 44 -15 20 0 20 0 0 15 -18 14 -18 14 6 15 14 0
36 3 49 7 22 5 23 4 18 -19 -8 -31 19 -61 33 -38 5 9 5 20 -2 27 -13 17 7 43
33 43 10 0 21 4 24 10 12 19 50 11 60 -12 7 -16 18 -22 35 -21 141 10 214 -2
273 -44 43 -32 52 -34 90 -28 23 4 93 7 156 6 112 -1 113 -1 141 -31 19 -21
37 -30 57 -29 l28 1 -30 9 c-16 4 -37 18 -46 30 -12 17 -33 25 -80 32 -91 13
-162 16 -179 7 -8 -4 -32 -10 -53 -13 -33 -5 -42 -1 -83 34 -38 33 -52 39 -89
39 -24 0 -56 5 -71 10 -19 8 -37 7 -61 -1 -32 -10 -37 -9 -62 15 -29 28 -68
33 -104 14 -38 -20 -179 -26 -185 -8 -2 6 -12 10 -22 10 -29 0 -50 11 -50 27
0 25 103 56 123 37 3 -4 41 -8 84 -10 71 -4 81 -2 118 23 43 30 95 35 185 19
l45 -8 25 49 c21 39 36 53 88 80 81 42 142 44 196 8 60 -40 105 -61 201 -90
152 -45 215 -91 215 -154 0 -11 36 -61 81 -111 72 -80 88 -92 135 -106 31 -9
84 -14 126 -13 100 2 159 -17 197 -65 17 -21 33 -46 36 -55 5 -16 51 -41 162
-86 23 -10 52 -29 65 -42 35 -38 62 -45 111 -28 58 20 69 19 100 -13 24 -25
27 -34 21 -68 -8 -51 1 -58 101 -74 51 -8 86 -20 98 -32 10 -10 28 -18 40 -18
13 0 28 -5 35 -12 9 -9 12 -9 12 0 0 9 16 10 58 6 80 -9 118 -58 74 -97 -29
-27 -57 -20 -91 21 -23 29 -29 32 -24 14 5 -21 56 -72 72 -72 4 0 22 11 40 24
34 25 52 25 83 -1 9 -8 19 -10 22 -5 10 16 121 8 149 -11 15 -10 27 -22 27
-27 0 -6 11 -10 25 -10 18 0 36 -14 65 -51 53 -67 93 -136 86 -148 -3 -5 5
-16 19 -25 14 -9 25 -23 25 -30 0 -7 12 -39 26 -70 19 -42 36 -63 67 -82 23
-14 52 -38 64 -52 17 -21 30 -26 59 -24 25 2 41 -3 51 -15 13 -16 13 -15 0 7
-12 20 -21 24 -47 22 -26 -3 -39 3 -65 30 -19 18 -52 48 -74 66 -42 35 -82
125 -85 190 -1 22 -5 31 -14 27 -7 -2 -31 22 -57 58 -76 106 -81 111 -146 144
-44 22 -77 32 -104 31 -62 -3 -132 34 -151 78 -15 35 -16 36 -57 30 -30 -5
-48 -2 -62 8 -11 9 -30 16 -41 16 -12 0 -27 6 -33 13 -6 8 -28 14 -48 15 -21
1 -69 6 -107 13 l-68 11 6 30 c3 17 6 36 6 43 0 7 21 15 51 18 45 6 55 3 81
-18 16 -14 34 -25 39 -25 6 0 16 -15 24 -32 14 -33 14 -33 15 -6 0 19 -9 33
-32 49 -18 12 -39 29 -45 37 -9 11 -33 16 -87 16 -64 1 -78 4 -100 25 -19 18
-32 22 -55 17 -17 -3 -44 -9 -61 -12 -46 -10 -76 3 -99 42 -12 19 -21 39 -21
43 0 5 28 26 62 48 71 46 113 54 293 59 161 4 274 20 299 43 12 11 46 30 77
44 31 13 73 41 93 62 l38 37 66 -7 c37 -3 85 -10 107 -15 37 -8 41 -7 77 31
20 21 47 39 58 39 11 0 32 7 45 16 21 14 36 14 112 4 133 -17 282 6 304 47 19
35 43 42 150 41 52 0 99 1 104 3 6 2 32 -1 58 -5 40 -6 62 -19 120 -69 95 -82
108 -90 199 -117 62 -18 86 -21 125 -14 l48 9 -64 3 c-35 2 -73 10 -85 18 -11
7 -29 14 -39 14 -30 0 -100 40 -138 79 -97 98 -137 115 -259 112 -47 -1 -97 2
-112 8 -21 8 -34 7 -55 -4 -15 -8 -33 -15 -40 -15 -6 0 -21 -13 -33 -29 -16
-24 -31 -31 -68 -36 -26 -3 -65 -10 -88 -14 -22 -4 -51 -4 -65 2 -13 5 -39 9
-58 8 -18 0 -42 4 -53 10 -15 8 -31 6 -68 -10 -27 -12 -60 -21 -75 -21 -18 0
-31 -9 -43 -30 -19 -34 -43 -45 -69 -32 -10 5 -48 12 -85 16 -76 7 -114 -6
-158 -54 -14 -16 -43 -34 -65 -40 -22 -7 -56 -23 -76 -36 -45 -31 -178 -49
-303 -41 -68 5 -96 2 -118 -9 -18 -9 -41 -13 -62 -9 -36 7 -75 -8 -133 -52
-41 -32 -67 -27 -71 12 -5 41 -37 73 -86 85 -83 21 -127 42 -153 75 -46 55
-102 87 -168 96 -56 7 -142 33 -173 53 -8 4 -23 29 -34 55 -25 60 -43 78 -82
87 -17 3 -45 15 -63 25 -21 13 -40 18 -57 13 -18 -4 -38 1 -63 16 -21 12 -66
26 -101 30 -54 7 -69 14 -106 48 -36 33 -53 41 -98 47 -98 12 -204 -25 -291
-104 -36 -32 -43 -35 -110 -36 -53 0 -83 -7 -113 -22 -38 -21 -51 -22 -175
-16 l-134 5 -32 33 c-18 18 -54 40 -80 49 -26 9 -68 30 -92 46 -24 17 -54 30
-66 30 -28 0 -48 23 -74 83 -11 26 -40 69 -64 95 -25 26 -57 73 -71 104 -40
84 -73 108 -151 108 -51 0 -64 3 -70 18 -14 37 -71 112 -90 118 -11 3 -49 22
-83 41 l-64 35 34 31 c19 18 39 39 44 47 5 8 21 26 36 39 l28 24 75 -37 c95
-47 177 -71 237 -69 44 1 48 -1 54 -25 4 -15 13 -36 20 -47 8 -11 14 -32 14
-47 0 -33 29 -65 67 -74 16 -4 42 -19 59 -34 23 -20 48 -29 90 -35 48 -6 63
-13 89 -40 29 -33 33 -34 87 -28 51 5 60 3 88 -21 17 -14 40 -26 50 -26 11 0
31 -5 45 -12 19 -9 37 -9 77 1 47 11 59 9 137 -16 82 -26 86 -26 143 -11 l58
15 81 -42 c45 -23 86 -49 91 -58 5 -10 14 -17 20 -17 26 0 -52 64 -117 97
l-70 36 -73 -12 c-77 -13 -101 -10 -143 21 -23 18 -33 18 -99 9 -59 -8 -79 -7
-101 5 -15 8 -35 14 -43 14 -8 0 -32 12 -53 26 -31 21 -46 25 -86 21 -42 -4
-50 -1 -67 21 -22 27 -79 51 -126 52 -20 0 -40 10 -59 30 -16 17 -37 30 -48
30 -34 0 -56 20 -63 58 -4 20 -12 48 -19 62 -7 14 -15 41 -19 61 -8 47 9 63
58 54 29 -6 44 -1 94 29 32 20 76 39 98 42 21 3 55 10 75 16 48 14 98 -3 127
-41 15 -20 36 -32 71 -41 27 -6 55 -18 62 -26 18 -21 107 -18 154 6 45 23 65
20 65 -9 0 -28 27 -51 61 -51 22 0 34 -8 49 -32 11 -18 20 -41 20 -50 0 -10
21 -38 46 -62 39 -38 50 -44 75 -39 22 4 36 -1 63 -25 19 -16 49 -33 67 -37
28 -6 36 -3 56 19 16 19 23 40 23 67 0 50 21 60 61 30 22 -16 38 -21 58 -16
27 6 101 -20 101 -35 0 -3 6 -15 14 -25 13 -18 14 -18 41 -1 19 13 38 16 62
13 29 -5 33 -4 23 8 -9 11 -3 22 28 54 22 23 46 41 54 41 23 0 191 -46 215
-58 12 -7 33 -12 47 -12 17 0 34 -11 52 -36 26 -34 30 -35 83 -33 31 1 75 -4
98 -11 37 -11 46 -10 85 9 52 25 71 26 101 6 21 -13 29 -13 82 8 48 18 62 30
78 61 18 34 19 43 8 73 -21 58 30 77 57 20 20 -41 76 -38 136 8 29 22 57 35
75 35 17 0 33 5 36 10 8 13 61 13 88 -1 12 -7 41 -27 65 -46 39 -32 46 -34 90
-28 68 9 112 9 152 1 26 -5 21 -1 -18 15 -52 20 -55 21 -92 4 -44 -20 -95 -13
-110 15 -5 10 -30 30 -56 45 -37 22 -54 26 -85 21 -21 -3 -58 -9 -81 -12 -24
-4 -47 -13 -51 -20 -4 -8 -26 -23 -48 -34 -42 -22 -59 -19 -93 19 -25 27 -81
29 -95 3 -5 -10 -7 -44 -4 -74 5 -51 4 -57 -18 -71 -43 -27 -88 -31 -131 -11
-32 14 -43 15 -56 6 -48 -35 -75 -41 -114 -25 -26 10 -52 13 -83 9 -46 -7 -51
-5 -97 52 -12 15 -29 22 -51 22 -18 0 -38 5 -44 11 -12 12 -202 59 -239 59
-17 0 -30 -9 -42 -30 -11 -20 -32 -35 -61 -45 -40 -13 -47 -13 -68 0 -25 16
-46 54 -57 98 -12 49 -49 77 -101 77 -51 0 -119 -30 -135 -59 -5 -11 -10 -38
-10 -60 0 -31 -5 -43 -21 -52 -33 -17 -100 -13 -151 9 -41 18 -51 29 -72 75
-24 56 -56 87 -89 87 -11 0 -23 13 -32 34 -14 34 -49 66 -71 66 -6 0 -23 -11
-37 -24 -14 -13 -45 -27 -67 -31 -34 -6 -46 -3 -63 13 -12 11 -39 24 -60 27
-23 5 -57 23 -83 46 -50 43 -97 56 -146 41 -18 -6 -56 -13 -83 -17 -31 -4 -70
-18 -100 -38 -40 -25 -61 -32 -105 -33 -30 0 -65 -4 -77 -8 -19 -7 -25 -2 -43
36 -26 50 -95 126 -127 139 -19 7 -23 16 -23 54 0 26 -5 55 -10 65 -14 26
-127 113 -164 126 -17 6 -31 17 -31 25 0 18 118 13 157 -7 36 -19 48 -18 20 2
-32 22 -27 41 13 54 43 14 124 3 132 -18 5 -12 19 -13 72 -9 50 5 83 1 136
-14 190 -53 185 -52 201 -32 7 10 14 24 14 31 0 18 21 15 36 -5 7 -10 16 -15
20 -11 4 5 -1 17 -11 28 -16 18 -16 20 -1 26 9 3 24 3 34 -2 9 -4 20 -7 24 -6
4 1 43 -3 88 -9 62 -9 84 -8 95 1 8 7 27 10 42 6 27 -5 27 -5 5 6 -17 9 -28 8
-47 -2 -19 -10 -33 -11 -62 -2 -21 6 -63 14 -93 17 -30 3 -73 8 -95 11 -32 4
-54 -1 -108 -26 l-69 -32 -41 18 c-29 12 -70 18 -130 18 -77 1 -91 4 -105 21
-23 28 -123 27 -179 -2 -33 -17 -47 -19 -113 -11 -92 11 -98 11 -132 2 -24 -5
-34 0 -74 41 -36 36 -51 45 -68 40 -88 -26 -157 -12 -188 41 -10 18 -38 44
-61 57 -23 14 -51 34 -61 46 -11 12 -43 28 -71 36 -45 14 -54 21 -81 67 -44
77 -54 80 -111 32 -84 -69 -123 -95 -156 -105 -29 -8 -35 -6 -64 26 -23 25
-41 35 -61 35 -41 0 -56 22 -49 70 8 60 -20 90 -83 90 -27 0 -52 -4 -55 -10
-16 -26 -55 -8 -110 52 -53 57 -60 61 -104 63 -25 1 -60 8 -78 14 -23 9 -41
10 -72 1 -32 -8 -48 -8 -77 5 -42 17 -46 15 -138 -52 -34 -25 -74 -52 -89 -60
-26 -13 -31 -13 -49 4 -12 10 -34 45 -49 79 -26 56 -57 91 -123 137 -15 10
-28 31 -32 51 -3 19 -17 45 -31 58 -21 19 -35 23 -91 23 -57 0 -73 -4 -109
-29 -39 -26 -50 -28 -147 -31 -97 -2 -107 -4 -136 -29 -38 -31 -36 -31 -80 -4
-55 33 -321 135 -384 147 -66 12 -76 17 -76 36 0 18 51 45 83 45 13 0 36 9 50
20 14 11 46 29 72 40 l48 20 34 -20 c41 -24 55 -25 94 -5 21 11 34 13 48 5 16
-8 18 -7 14 8 -7 28 75 46 146 32 29 -5 71 -10 93 -10 21 0 47 -4 58 -10 11
-5 29 -15 41 -21 23 -12 41 -3 20 10 -28 18 -1 30 30 14 29 -14 34 -14 68 4
20 11 58 20 84 21 29 1 64 10 88 24 l39 22 26 -25 c30 -28 74 -31 92 -6 7 9
19 17 26 17 28 0 48 36 41 74 l-7 36 58 1 59 2 -69 8 c-82 11 -101 1 -68 -34
40 -43 29 -62 -51 -91 -48 -18 -49 -18 -71 3 -22 21 -76 29 -76 12 0 -13 -55
-30 -79 -24 -11 3 -46 -3 -77 -13 -40 -12 -61 -15 -73 -7 -9 5 -57 8 -111 6
-52 -1 -119 2 -148 8 -60 12 -146 -2 -197 -33 -37 -22 -57 -23 -97 -2 -37 19
-89 8 -151 -32 -20 -14 -52 -27 -70 -31 -17 -3 -43 -12 -55 -20 -20 -12 -29
-12 -53 -2 -23 9 -36 9 -55 0 -47 -21 -110 -14 -146 18 -40 34 -185 101 -220
101 -14 0 -39 -5 -57 -11 -26 -9 -37 -8 -66 9 -19 12 -58 25 -87 31 -29 5 -73
17 -97 25 -24 9 -57 16 -73 16 -16 0 -51 10 -78 21 l-50 21 -65 -23 c-56 -20
-70 -21 -98 -11 -19 7 -47 12 -63 12 -19 1 -48 16 -84 45 -30 25 -77 57 -103
72 -27 16 -76 45 -110 66 -118 72 -143 80 -223 74 l-72 -7 -53 43 c-99 80
-130 112 -177 182 -49 73 -53 75 -157 96 -52 10 -65 18 -106 62 -26 28 -52 69
-59 91 -7 23 -23 63 -37 89 -19 39 -33 53 -71 69 -26 11 -64 36 -84 56 -36 34
-38 40 -38 97 0 79 -20 116 -101 184 -35 30 -77 75 -93 101 -19 31 -48 59 -83
80 -44 27 -54 38 -59 69 -10 57 -51 119 -92 140 -20 11 -46 34 -56 53 -21 37
-104 121 -137 138 -12 7 -67 15 -122 18 -95 5 -102 7 -136 37 -87 76 -116 81
-160 28z m1972 -1733 c29 -11 69 -34 87 -50 19 -17 51 -35 72 -40 42 -12 98
-55 98 -76 0 -19 -6 -18 -85 16 -48 20 -87 30 -124 30 -47 0 -59 4 -95 36 -22
19 -47 40 -54 45 -18 14 -11 31 19 46 30 16 19 16 82 -7z m352 -220 c28 -16
58 -30 69 -30 10 0 33 -9 51 -20 l32 -20 77 26 c76 26 78 26 116 9 25 -11 53
-16 82 -13 27 3 60 -2 88 -12 25 -10 63 -20 85 -24 22 -4 57 -19 79 -33 29
-19 46 -23 70 -18 79 16 104 16 135 1 17 -9 31 -20 31 -24 0 -7 -133 -42 -159
-42 -7 0 -24 9 -38 20 -14 11 -39 20 -55 20 -16 0 -46 -9 -68 -20 -59 -30
-159 -28 -208 5 -21 14 -64 31 -95 37 -48 10 -64 9 -111 -5 -53 -17 -57 -17
-93 2 -38 19 -153 140 -153 160 0 16 10 13 65 -19z m1235 -170 c0 -5 -4 -10
-10 -10 -5 0 -10 5 -10 10 0 6 5 10 10 10 6 0 10 -4 10 -10z m-252 -23 c2 -10
-3 -17 -11 -17 -18 0 -39 24 -30 34 12 12 38 2 41 -17z m1259 -231 c22 -44 52
-75 94 -96 29 -15 42 -33 68 -91 18 -39 30 -78 27 -85 -11 -29 -174 -31 -234
-2 -25 12 -27 18 -24 64 3 48 1 52 -40 92 -39 38 -47 42 -95 42 -28 0 -64 -5
-79 -11 -38 -14 -74 -4 -74 21 0 22 6 24 138 41 70 9 103 19 135 39 49 31 62
29 84 -14z m-629 -27 c39 -19 42 -23 29 -37 -20 -19 -39 -11 -66 27 -26 37
-22 38 37 10z m1356 -150 c19 -15 34 -19 56 -14 24 5 35 1 57 -19 106 -99 164
-126 193 -91 7 9 23 15 34 13 17 -2 22 -13 28 -52 9 -62 36 -100 74 -104 15
-2 44 -17 63 -34 32 -28 37 -30 90 -23 38 4 64 14 81 30 14 12 44 34 67 48 23
15 44 31 48 37 12 19 26 10 40 -24 18 -42 50 -66 87 -66 18 0 42 -13 65 -34
21 -18 52 -39 68 -47 22 -10 31 -22 33 -44 5 -41 16 -51 60 -58 20 -4 69 -22
107 -42 108 -54 169 -75 207 -69 39 6 159 -51 233 -112 45 -36 45 -37 39 -86
-5 -39 -3 -52 11 -68 10 -11 22 -20 27 -20 27 0 96 -67 125 -123 33 -62 32
-88 -3 -69 -11 5 -37 13 -58 16 -22 4 -79 27 -127 52 -108 55 -139 57 -168 9
-26 -45 -53 -45 -72 -2 -10 23 -31 41 -73 63 -41 22 -66 44 -86 75 -15 24 -61
77 -103 117 -74 71 -75 72 -129 72 -41 0 -62 6 -87 24 -27 20 -37 22 -65 14
-26 -8 -44 -6 -97 15 -55 21 -79 24 -174 23 -62 -1 -125 -8 -145 -15 -26 -10
-54 -11 -105 -5 l-70 9 -24 52 c-21 45 -32 56 -78 78 -29 14 -59 25 -66 25 -7
0 -25 14 -41 31 -38 40 -127 84 -223 110 -88 24 -107 37 -135 94 -11 22 -38
56 -59 76 -45 42 -44 61 5 86 17 8 43 27 58 41 26 24 30 25 65 13 32 -10 44
-10 73 3 47 20 63 20 94 -5z m1364 -493 c3 -13 -1 -17 -14 -14 -11 2 -20 11
-22 22 -3 13 1 17 14 14 11 -2 20 -11 22 -22z m946 -51 c-5 -13 -47 -45 -59
-45 -13 0 -2 25 21 47 26 24 47 23 38 -2z m-1194 -209 c134 -127 133 -125 120
-141 -22 -26 -49 -17 -78 27 -15 23 -44 58 -65 79 -36 35 -42 59 -14 59 6 0
23 -11 37 -24z m2300 -396 c11 -11 20 -33 20 -49 0 -16 7 -34 15 -41 29 -24
17 -36 -37 -36 -73 2 -138 42 -138 87 0 24 6 33 33 44 45 20 84 18 107 -5z
m-186 -142 c7 -12 6 -21 -3 -32 -12 -14 -16 -14 -44 1 l-31 16 24 19 c26 21
39 20 54 -4z m307 -41 c-1 -12 -15 -9 -19 4 -3 6 1 10 8 8 6 -3 11 -8 11 -12z
m265 -758 c17 -17 47 -34 65 -39 19 -5 52 -15 74 -24 22 -8 55 -15 73 -16 41
0 122 -46 122 -68 0 -15 -15 -17 -103 -19 -64 -2 -112 2 -128 10 -33 15 -149
149 -149 171 0 23 10 20 46 -15z m525 -240 c42 -14 59 -34 59 -71 0 -50 -51
-49 -76 0 -6 12 -19 31 -28 41 -17 18 -15 41 3 41 4 0 23 -5 42 -11z"/>
<path d="M5395 4490 c-8 -13 5 -13 25 0 13 8 13 10 -2 10 -9 0 -20 -4 -23 -10z"/>
<path d="M5348 4463 c7 -3 16 -2 19 1 4 3 -2 6 -13 5 -11 0 -14 -3 -6 -6z"/>
<path d="M5005 4430 c-3 -5 3 -10 15 -10 12 0 18 5 15 10 -3 6 -10 10 -15 10
-5 0 -12 -4 -15 -10z"/>
<path d="M5265 4409 c-9 -14 -7 -15 53 -23 37 -5 52 -4 47 4 -3 5 -19 10 -35
10 -16 0 -32 5 -35 10 -8 13 -22 13 -30 -1z"/>
<path d="M7308 3553 c7 -3 16 -2 19 1 4 3 -2 6 -13 5 -11 0 -14 -3 -6 -6z"/>
<path d="M8035 3463 c11 -3 27 -10 35 -17 13 -10 13 -9 1 7 -7 9 -23 16 -35
16 -20 -1 -20 -2 -1 -6z"/>
<path d="M8115 3450 c-6 -10 84 -40 122 -40 13 0 23 5 23 11 0 7 8 18 18 25
15 12 14 13 -10 14 -19 0 -28 -5 -28 -15 0 -13 -7 -15 -37 -9 -21 4 -46 11
-55 15 -21 11 -25 11 -33 -1z"/>
<path d="M7149 3395 c23 -14 50 -25 59 -25 8 0 -6 11 -32 25 -61 32 -84 32
-27 0z"/>
<path d="M7260 3384 c-32 -13 -32 -14 -5 -8 17 4 38 7 47 8 9 0 14 4 12 8 -7
10 -12 9 -54 -8z"/>
<path d="M7720 3390 c0 -12 39 -49 53 -50 17 0 5 20 -23 40 -17 12 -30 16 -30
10z"/>
<path d="M7790 3312 c0 -5 7 -15 15 -22 8 -7 15 -8 15 -2 0 5 -7 15 -15 22 -8
7 -15 8 -15 2z"/>
<path d="M7420 3284 c0 -14 36 -33 60 -34 24 0 24 1 -8 20 -33 20 -52 25 -52
14z"/>
<path d="M7526 3226 c3 -9 11 -16 16 -16 13 0 5 23 -10 28 -7 2 -10 -2 -6 -12z"/>
<path d="M10675 2803 c-22 -5 -45 -23 -29 -23 5 0 27 7 49 15 37 13 24 19 -20
8z"/>
<path d="M10898 2803 c7 -3 16 -2 19 1 4 3 -2 6 -13 5 -11 0 -14 -3 -6 -6z"/>
<path d="M10745 2790 c3 -5 11 -10 16 -10 6 0 7 5 4 10 -3 6 -11 10 -16 10 -6
0 -7 -4 -4 -10z"/>
<path d="M9052 2544 c10 -10 20 -16 22 -13 3 3 -5 11 -17 18 -21 13 -21 12 -5
-5z"/>
<path d="M9240 2530 c-8 -5 -31 -10 -50 -10 -30 -1 -32 -2 -17 -11 21 -12 53
-6 82 15 22 17 9 22 -15 6z"/>
<path d="M8568 2353 c7 -3 16 -2 19 1 4 3 -2 6 -13 5 -11 0 -14 -3 -6 -6z"/>
<path d="M8189 1790 c13 -11 28 -20 33 -20 6 0 -1 9 -15 20 -33 26 -49 26 -18
0z"/>
<path d="M12380 1800 c-8 -5 -10 -10 -5 -10 6 0 17 5 25 10 8 5 11 10 5 10 -5
0 -17 -5 -25 -10z"/>
<path d="M7950 1771 c0 -14 22 -26 44 -22 10 1 28 -6 40 -17 26 -24 76 -35 76
-16 0 7 -13 15 -29 19 -16 3 -35 13 -42 21 -6 8 -20 12 -30 9 -10 -4 -27 -1
-39 5 -12 6 -20 7 -20 1z"/>
<path d="M12288 1773 c12 -2 30 -2 40 0 9 3 -1 5 -23 4 -22 0 -30 -2 -17 -4z"/>
<path d="M8851 1748 c2 -2 18 -14 34 -28 l30 -25 -24 28 c-14 15 -29 27 -34
27 -6 0 -8 -1 -6 -2z"/>
<path d="M8960 1681 c-23 -4 -30 -8 -19 -13 8 -3 27 -4 41 -1 20 4 34 -3 59
-26 38 -37 39 -37 39 -11 0 11 -5 20 -11 20 -6 0 -22 9 -36 20 -14 11 -28 19
-32 19 -3 -1 -22 -4 -41 -8z"/>
<path d="M8287 1630 c-6 -23 12 -38 23 -20 9 14 2 40 -10 40 -4 0 -10 -9 -13
-20z"/>
<path d="M9098 1593 c7 -3 16 -2 19 1 4 3 -2 6 -13 5 -11 0 -14 -3 -6 -6z"/>
<path d="M8290 1553 c0 -6 8 -17 18 -24 16 -13 16 -13 2 6 -8 11 -16 22 -17
24 -2 2 -3 0 -3 -6z"/>
<path d="M8340 1461 c0 -5 5 -13 10 -16 6 -3 10 -2 10 4 0 5 -4 13 -10 16 -5
3 -10 2 -10 -4z"/>
<path d="M8371 1404 c0 -11 3 -14 6 -6 3 7 2 16 -1 19 -3 4 -6 -2 -5 -13z"/>
<path d="M8570 1133 c8 -3 24 -10 35 -15 20 -9 20 -9 1 6 -11 9 -27 16 -35 15
-14 0 -14 -1 -1 -6z"/>
<path d="M8680 1050 c0 -5 5 -10 11 -10 5 0 7 5 4 10 -3 6 -8 10 -11 10 -2 0
-4 -4 -4 -10z"/>
<path d="M10620 931 c0 -6 5 -13 10 -16 6 -3 10 1 10 9 0 9 -4 16 -10 16 -5 0
-10 -4 -10 -9z"/>
<path d="M10750 880 c0 -6 7 -10 15 -10 8 0 15 2 15 4 0 2 -7 6 -15 10 -8 3
-15 1 -15 -4z"/>
<path d="M11240 496 c0 -10 8 -16 21 -16 12 0 41 -10 64 -21 32 -16 50 -20 72
-13 l28 8 -30 3 c-39 5 -126 33 -142 46 -9 7 -13 5 -13 -7z"/>
</g>
</svg>
